# xmcd CD database file
#
# Track frame offsets:
#	150
#	16498
#	31657
#	46722
#	67484
#	83164
#	96207
#	109077
#	117757
#	126748
#	137706
#	155363
#	164231
#	178584
#	199362
#	212351
#	229547
#
# Disc length: 3424 seconds
#
# Revision: 2
# Processed by: cddbd v1.4PL0 Copyright (c) Steve Scherf et al.
# Submitted via: CDex 1.50beta10
#
DISCID=ee0d5e11
DTITLE=EstakaZero - CD Promocional
DYEAR=2002
DGENRE=Country
TTITLE0=Voltanto à estakazero
TTITLE1=Janaina
TTITLE2=Deixa entrar
TTITLE3=porto Seguro
TTITLE4=Deixa doido eu
TTITLE5=Xote da alegria
TTITLE6=Xote das meninas
TTITLE7=Feira de Mangaio
TTITLE8=Óia eu aqui de novo
TTITLE9=No embalo do forró
TTITLE10=Tentação
TTITLE11=Procurando Tú
TTITLE12=Esperando na Janela
TTITLE13=Avisa
TTITLE14=Hô! Chuva
TTITLE15=Xote na beura do mar
TTITLE16=Na emenda - Fogareu -Riacho do Naviu - Forro no Escuro
EXTD=YEAR: 2002
EXTT0=
EXTT1=
EXTT2=
EXTT3=
EXTT4=
EXTT5=
EXTT6=
EXTT7=
EXTT8=
EXTT9=
EXTT10=
EXTT11=
EXTT12=
EXTT13=
EXTT14=
EXTT15=
EXTT16=
PLAYORDER=
